<?xml version="1.0" standalone="no"?>
<svg version="1.0" xmlns="http://www.w3.org/2000/svg"
 width="512.000000pt" height="512.000000pt" viewBox="0 0 512.000000 512.000000"
 preserveAspectRatio="xMidYMid meet">

<g transform="translate(0.000000,512.000000) scale(0.100000,-0.100000)"
fill="#000000" stroke="none">
<path d="M2360 4755 c-356 -71 -651 -314 -786 -646 -52 -129 -66 -203 -73
-394 l-6 -180 -225 -5 c-182 -5 -235 -9 -275 -24 -202 -73 -336 -246 -351
-456 -7 -99 265 -2291 296 -2377 60 -172 212 -306 388 -342 37 -8 416 -11
1235 -11 1019 0 1191 2 1246 15 170 40 312 170 371 338 30 84 304 2277 297
2377 -13 204 -140 373 -340 453 -46 19 -79 22 -282 27 l-230 5 -6 180 c-7 195
-22 272 -78 406 -136 323 -423 559 -766 630 -107 22 -314 24 -415 4z m398
-325 c239 -67 426 -245 508 -485 25 -72 28 -97 32 -247 l4 -168 -742 0 -742 0
4 168 c4 147 8 177 31 247 38 114 90 198 182 290 115 115 239 182 390 211 91
18 239 11 333 -16z m-1258 -1430 c0 -231 3 -246 59 -293 61 -51 151 -44 208
16 45 47 53 90 53 300 l0 187 740 0 740 0 0 -193 c0 -105 4 -208 10 -226 12
-44 64 -97 107 -112 45 -15 107 -3 144 28 56 47 59 62 59 293 l0 210 195 0
c217 0 245 -6 298 -70 60 -71 65 -4 -88 -1229 -158 -1270 -143 -1190 -244
-1243 l-53 -28 -1168 0 -1168 0 -53 28 c-101 53 -86 -27 -244 1243 -153 1224
-148 1158 -89 1229 54 63 78 69 297 70 l197 0 0 -210z"/>
</g>
</svg>
