<?xml version="1.0" standalone="no"?>
<svg version="1.0" xmlns="http://www.w3.org/2000/svg"
 width="512.000000pt" height="512.000000pt" viewBox="0 0 512.000000 512.000000"
 preserveAspectRatio="xMidYMid meet">

<g transform="translate(0.000000,512.000000) scale(0.100000,-0.100000)"
fill="#000000" stroke="none">
<path d="M2370 5114 c-19 -2 -78 -9 -130 -15 -791 -90 -1522 -586 -1924 -1305
-146 -262 -252 -588 -297 -914 -18 -125 -18 -515 0 -640 80 -582 327 -1083
732 -1489 721 -720 1787 -944 2741 -576 214 83 512 253 555 317 85 126 14 292
-133 314 -56 8 -97 -7 -202 -73 -542 -342 -1210 -424 -1822 -224 -653 213
-1166 726 -1379 1377 -148 452 -148 896 0 1348 214 653 723 1162 1378 1376
449 147 894 147 1345 -1 488 -160 893 -481 1171 -929 244 -394 355 -896 300
-1363 -37 -315 -119 -560 -295 -876 -85 -153 28 -332 194 -307 94 14 132 59
245 287 493 991 301 2166 -480 2948 -399 398 -879 639 -1449 726 -100 15 -472
28 -550 19z"/>
<path d="M1795 3423 c-99 -52 -141 -161 -100 -261 11 -24 112 -133 298 -319
l282 -283 -282 -282 c-186 -187 -287 -296 -298 -320 -69 -166 97 -332 263
-263 24 11 133 112 320 298 l282 282 283 -282 c186 -186 295 -287 319 -298
166 -69 332 97 263 263 -11 24 -112 133 -298 320 l-282 282 282 283 c186 186
287 295 298 319 69 166 -97 332 -263 263 -24 -11 -133 -112 -319 -298 l-283
-282 -282 282 c-187 186 -296 287 -320 298 -48 19 -124 19 -163 -2z"/>
</g>
</svg>
